<svg xmlns="http://www.w3.org/2000/svg" xmlns:xlink="http://www.w3.org/1999/xlink" width="500" zoomAndPan="magnify" viewBox="0 0 375 374.999991" height="500" preserveAspectRatio="xMidYMid meet" version="1.0"><defs><g/><clipPath id="8c9c2dc1b9"><path d="M 84 204 L 152 204 L 152 310 L 84 310 Z M 84 204 " clip-rule="nonzero"/></clipPath><clipPath id="fe1b3d6b26"><path d="M 83.992188 298.828125 L 105.320312 204.457031 L 152.140625 215.039062 L 130.8125 309.410156 Z M 83.992188 298.828125 " clip-rule="nonzero"/></clipPath><clipPath id="d5cb59a9a4"><path d="M 83.992188 298.828125 L 105.320312 204.457031 L 152.140625 215.039062 L 130.8125 309.410156 Z M 83.992188 298.828125 " clip-rule="nonzero"/></clipPath><clipPath id="19d99100b7"><path d="M 83.992188 298.828125 L 105.320312 204.457031 L 152.140625 215.039062 L 130.8125 309.410156 Z M 83.992188 298.828125 " clip-rule="nonzero"/></clipPath><clipPath id="e17a4f513a"><path d="M 105.09375 21.085938 L 268.59375 21.085938 L 268.59375 102.835938 L 105.09375 102.835938 Z M 105.09375 21.085938 " clip-rule="nonzero"/></clipPath></defs><rect x="-37.5" width="450" fill="#ffffff" y="-37.499999" height="449.999989" fill-opacity="1"/><rect x="-37.5" width="450" fill="#ffffff" y="-37.499999" height="449.999989" fill-opacity="1"/><g fill="#000000" fill-opacity="1"><g transform="translate(117.602664, 285.798708)"><g><path d="M 93.4375 -183.96875 L 93.4375 -51.953125 C 93.4375 -33.960938 88.492188 -20.25 78.609375 -10.8125 C 68.722656 -1.375 54.5625 3.34375 36.125 3.34375 C 31.21875 3.34375 26.382812 2.75 21.625 1.5625 C 16.875 0.375 12.863281 -1.070312 9.59375 -2.78125 C 6.320312 -4.5 3.382812 -6.25 0.78125 -8.03125 C -1.820312 -9.8125 -3.71875 -11.296875 -4.90625 -12.484375 L -6.90625 -14.265625 L 6.46875 -49.28125 C 15.238281 -40.957031 23.191406 -36.796875 30.328125 -36.796875 C 36.722656 -36.796875 41.851562 -38.910156 45.71875 -43.140625 C 49.582031 -47.378906 51.515625 -53.882812 51.515625 -62.65625 L 51.515625 -183.96875 Z M 93.4375 -183.96875 "/></g></g></g><g clip-path="url(#8c9c2dc1b9)"><g clip-path="url(#fe1b3d6b26)"><g clip-path="url(#d5cb59a9a4)"><g clip-path="url(#19d99100b7)"><path fill="#ffffff" d="M 151.683594 216.929688 L 131.210938 307.503906 C 130.976562 308.554688 129.9375 309.214844 128.894531 308.976562 L 85.914062 299.261719 C 84.875 299.027344 84.222656 297.984375 84.457031 296.9375 L 104.929688 206.363281 C 105.164062 205.3125 106.203125 204.652344 107.246094 204.890625 L 150.226562 214.601562 C 151.265625 214.839844 151.917969 215.882812 151.683594 216.929688 Z M 151.683594 216.929688 " fill-opacity="1" fill-rule="nonzero"/></g></g></g></g><g fill="#000000" fill-opacity="1"><g transform="translate(135.862481, 236.348963)"><g><path d="M 1.296875 -107.234375 L 1.296875 -134.046875 L 95.546875 -134.046875 L 95.546875 -107.234375 L 63.6875 -107.234375 L 63.6875 0 L 33.140625 0 L 33.140625 -107.234375 Z M 1.296875 -107.234375 "/></g></g></g><g fill="#000000" fill-opacity="1"><g transform="translate(169.903105, 236.297212)"><g><path d="M 87.53125 -134.46875 L 87.53125 -107.578125 L 40.421875 -107.578125 L 40.421875 -80.84375 L 83.9375 -80.84375 L 83.9375 -53.953125 L 40.421875 -53.953125 L 40.421875 0 L 9.78125 0 L 9.78125 -134.46875 Z M 87.53125 -134.46875 "/></g></g></g><g fill="#000000" fill-opacity="1"><g transform="translate(235.502934, 137.29105)"><g><path d="M -118.796875 -35.71875 L 0 -35.71875 L 0 -8.640625 L -118.796875 -8.640625 Z M -118.796875 -35.71875 "/></g></g></g><path stroke-linecap="butt" transform="matrix(-0.000000000000000288, -0.750997, 0.75, -0.000000000000000287, 58.953154, 326.365788)" fill="none" stroke-linejoin="miter" d="M -0.0018633 1.999961 L 352.539815 1.999961 " stroke="#ffffff" stroke-width="4" stroke-opacity="1" stroke-miterlimit="4"/><g clip-path="url(#e17a4f513a)"><path fill="#ffffff" d="M 265.308594 102.789062 L 108.390625 102.789062 C 106.570312 102.789062 105.09375 101.316406 105.09375 99.496094 L 105.09375 24.441406 C 105.09375 22.621094 106.570312 21.148438 108.390625 21.148438 L 265.308594 21.148438 C 267.128906 21.148438 268.601562 22.621094 268.601562 24.441406 L 268.601562 99.496094 C 268.601562 101.316406 267.128906 102.789062 265.308594 102.789062 Z M 265.308594 102.789062 " fill-opacity="1" fill-rule="nonzero"/></g></svg>